.
..............................Site Info...........................

 -   http://www.scenetime.com  *_*    

Scenetime .Always on time . friendly online private torrent community ..

     We care to share . Join us on  http://www.scenetime.com 

    Be the first to get new release at  http://www.scenetime.com

        Seed back for speed


...................................NFO:.................................................Complete name                    : Evolution of Bodybuilding (by-kvvv2004).mp4
Format                           : MPEG-4
Format profile                   : Base Media / Version 2
Codec ID                         : mp42
File size                        : 4.55 GiB
Duration                         : 1h 26mn
Overall bit rate mode            : Variable
Overall bit rate                 : 7 529 Kbps
Encoded date                     : UTC 2012-05-16 15:42:16
Tagged date                      : UTC 2012-05-16 16:12:11

Video
ID                               : 1
Format                           : AVC
Format/Info                      : Advanced Video Codec
Format profile                   : High@L4.1
Format settings, CABAC           : Yes
Format settings, ReFrames        : 2 frames
Format settings, GOP             : M=3, N=15
Codec ID                         : avc1
Codec ID/Info                    : Advanced Video Coding
Duration                         : 1h 26mn
Bit rate mode                    : Variable
Bit rate                         : 7 442 Kbps
Maximum bit rate                 : 11.2 Mbps
Width                            : 1 920 pixels
Height                           : 1 080 pixels
Display aspect ratio             : 16:9
Frame rate mode                  : Variable
Frame rate                       : 23.976 fps
Minimum frame rate               : 23.974 fps
Maximum frame rate               : 90.000 fps
Color space                      : YUV
Chroma subsampling               : 4:2:0
Bit depth                        : 8 bits
Scan type                        : Progressive
Bits/(Pixel*Frame)               : 0.150
Stream size                      : 4.50 GiB (99%)
Encoded date                     : UTC 2012-05-16 15:42:16
Tagged date                      : UTC 2012-05-16 16:12:05
Color primaries                  : BT.709-2, SMPTE 274M, SMPTE 296M
Transfer characteristics         : BT.709-2, SMPTE 170M, SMPTE 274M, SMPTE 293M, SMPTE 296M
Matrix coefficients              : BT.709-2, SMPTE 274M, SMPTE 296M

Audio
ID                               : 2
Format                           : AAC
Format/Info                      : Advanced Audio Codec
Format profile                   : LC
Codec ID                         : 40
Duration                         : 1h 26mn
Bit rate mode                    : Variable
Bit rate                         : 82.7 Kbps
Maximum bit rate                 : 112 Kbps
Channel(s)                       : 1 channel
Channel positions                : Front: C
Sampling rate                    : 48.0 KHz
Compression mode                 : Lossy
Stream size                      : 51.2 MiB (1%)
Encoded date                     : UTC 2012-05-16 15:42:16
Tagged date                      : UTC 2012-05-16 16:11:54